<?xml version="1.0" encoding="utf-8"?>
<!-- Generator: Adobe Illustrator 17.1.0, SVG Export Plug-In . SVG Version: 6.00 Build 0)  -->
<!DOCTYPE svg PUBLIC "-//W3C//DTD SVG 1.1//EN" "http://www.w3.org/Graphics/SVG/1.1/DTD/svg11.dtd">
<svg version="1.1" id="Layer_1" xmlns="http://www.w3.org/2000/svg" xmlns:xlink="http://www.w3.org/1999/xlink" x="0px" y="0px"
	 viewBox="0 0 28 10" enable-background="new 0 0 28 10" xml:space="preserve">
<g id="Layer_1_1_">
	<g>
		<rect x="0.04" y="-2.542" display="none" fill="#008FD5" width="28" height="14"/>
		<g>
			<path fill="#FFFFFF" d="M4.469,4.921C4.45,4.642,4.382,4.398,4.265,4.191C4.148,3.984,3.993,3.81,3.802,3.673
				c-0.19-0.137-0.403-0.24-0.642-0.309C2.923,3.297,2.673,3.263,2.414,3.263C2.058,3.264,1.741,3.324,1.465,3.442
				c-0.276,0.117-0.51,0.282-0.701,0.495C0.574,4.15,0.428,4.399,0.33,4.687C0.231,4.975,0.18,5.289,0.18,5.632
				c0.001,0.33,0.055,0.63,0.159,0.904c0.106,0.272,0.255,0.509,0.45,0.71c0.195,0.199,0.427,0.354,0.697,0.462
				c0.271,0.11,0.571,0.165,0.902,0.166c0.388-0.002,0.73-0.071,1.025-0.207C3.709,7.528,3.95,7.327,4.135,7.06
				C4.32,6.794,4.44,6.468,4.495,6.08H3.336C3.31,6.262,3.258,6.418,3.181,6.551C3.102,6.683,2.996,6.786,2.862,6.858
				C2.73,6.93,2.569,6.967,2.38,6.968C2.192,6.966,2.034,6.925,1.906,6.843C1.778,6.76,1.675,6.651,1.599,6.517
				C1.521,6.382,1.466,6.234,1.432,6.073C1.397,5.911,1.38,5.75,1.382,5.589c0-0.13,0.01-0.261,0.032-0.395S1.472,4.934,1.52,4.811
				C1.569,4.688,1.633,4.58,1.713,4.483c0.079-0.096,0.176-0.172,0.29-0.228C2.117,4.198,2.252,4.17,2.405,4.168
				c0.258,0,0.461,0.063,0.609,0.189c0.148,0.127,0.241,0.314,0.279,0.564L4.469,4.921L4.469,4.921z M5.804,5.573
				c-0.001-0.178,0.015-0.35,0.051-0.516c0.035-0.166,0.093-0.316,0.173-0.45c0.08-0.134,0.189-0.24,0.326-0.319
				C6.49,4.211,6.659,4.17,6.861,4.168c0.204,0.001,0.375,0.042,0.513,0.12c0.137,0.079,0.247,0.185,0.327,0.319
				c0.082,0.134,0.14,0.283,0.175,0.45c0.035,0.166,0.052,0.338,0.051,0.516C7.928,5.75,7.911,5.921,7.876,6.087
				C7.841,6.252,7.783,6.402,7.701,6.534c-0.08,0.133-0.19,0.237-0.327,0.314c-0.138,0.079-0.309,0.119-0.513,0.12
				C6.659,6.967,6.49,6.927,6.353,6.848C6.217,6.771,6.108,6.667,6.028,6.534C5.947,6.402,5.889,6.252,5.854,6.087
				C5.819,5.921,5.802,5.75,5.804,5.573L5.804,5.573z M4.602,5.573c0.001,0.348,0.055,0.663,0.161,0.944
				c0.106,0.282,0.257,0.525,0.455,0.726C5.415,7.445,5.652,7.6,5.93,7.709c0.276,0.109,0.586,0.163,0.931,0.165
				c0.345-0.002,0.658-0.056,0.936-0.165C8.075,7.6,8.313,7.445,8.512,7.243c0.197-0.201,0.35-0.444,0.455-0.726
				c0.106-0.282,0.159-0.596,0.161-0.944c-0.002-0.35-0.055-0.667-0.161-0.95C8.861,4.34,8.709,4.096,8.512,3.895
				C8.313,3.692,8.075,3.536,7.797,3.428C7.519,3.319,7.206,3.264,6.861,3.263C6.517,3.264,6.206,3.319,5.93,3.428
				C5.652,3.536,5.415,3.692,5.218,3.895C5.019,4.096,4.868,4.34,4.763,4.622C4.657,4.906,4.603,5.223,4.602,5.573L4.602,5.573z
				 M10.538,5.573c-0.001-0.178,0.016-0.35,0.051-0.516c0.035-0.166,0.093-0.316,0.173-0.45c0.08-0.134,0.189-0.24,0.326-0.319
				c0.137-0.077,0.306-0.118,0.508-0.12c0.205,0.001,0.375,0.042,0.513,0.12c0.137,0.079,0.247,0.185,0.327,0.319l0.016,0.027
				l1.14-0.259c-0.093-0.179-0.208-0.339-0.345-0.48c-0.199-0.203-0.437-0.358-0.715-0.467c-0.278-0.109-0.591-0.164-0.936-0.165
				c-0.344,0.001-0.654,0.056-0.93,0.165c-0.278,0.109-0.515,0.264-0.712,0.467C9.755,4.096,9.604,4.34,9.498,4.622
				c-0.106,0.283-0.159,0.601-0.161,0.95c0.001,0.348,0.055,0.663,0.161,0.944c0.106,0.282,0.257,0.525,0.456,0.726
				c0.197,0.202,0.434,0.357,0.712,0.465c0.276,0.109,0.586,0.163,0.93,0.165c0.345-0.002,0.658-0.056,0.936-0.165
				c0.278-0.109,0.516-0.264,0.715-0.465c0.197-0.201,0.35-0.444,0.456-0.726c0.106-0.282,0.159-0.596,0.161-0.944L13.862,5.5
				l-1.207,0.274c-0.008,0.106-0.023,0.21-0.044,0.312c-0.035,0.165-0.093,0.314-0.175,0.447c-0.08,0.133-0.19,0.237-0.327,0.314
				c-0.138,0.079-0.309,0.119-0.513,0.12c-0.201-0.001-0.371-0.041-0.507-0.12c-0.137-0.078-0.245-0.182-0.326-0.314
				c-0.08-0.132-0.138-0.282-0.173-0.447C10.554,5.921,10.537,5.75,10.538,5.573L10.538,5.573z M14.317,7.755h1.201V6.249
				l0.465-0.448l1.201,1.954h1.455l-1.836-2.766l1.65-1.607h-1.421l-1.515,1.574v-3.24h-1.201L14.317,7.755L14.317,7.755z
				 M21.091,6.968c-0.194-0.001-0.358-0.041-0.492-0.117c-0.134-0.076-0.242-0.179-0.325-0.31c-0.081-0.131-0.141-0.279-0.178-0.444
				c-0.038-0.165-0.055-0.337-0.055-0.516c-0.001-0.179,0.017-0.353,0.052-0.52c0.035-0.168,0.093-0.319,0.173-0.453
				c0.08-0.134,0.186-0.241,0.32-0.319c0.134-0.079,0.299-0.12,0.495-0.121c0.192,0.001,0.355,0.042,0.489,0.121
				c0.134,0.08,0.241,0.188,0.324,0.321c0.082,0.135,0.143,0.286,0.181,0.453c0.037,0.168,0.056,0.34,0.055,0.518
				c0.002,0.179-0.017,0.351-0.052,0.516c-0.035,0.165-0.093,0.313-0.173,0.444c-0.079,0.131-0.186,0.234-0.32,0.31
				C21.452,6.928,21.287,6.967,21.091,6.968L21.091,6.968z M18.883,9.295h1.201V7.214h0.017c0.1,0.144,0.217,0.265,0.353,0.363
				c0.137,0.098,0.286,0.172,0.448,0.223c0.162,0.049,0.331,0.075,0.51,0.075c0.257-0.002,0.488-0.042,0.694-0.123
				c0.205-0.08,0.385-0.193,0.537-0.335c0.154-0.144,0.282-0.311,0.383-0.5c0.103-0.191,0.179-0.396,0.23-0.616
				c0.051-0.221,0.076-0.448,0.076-0.684c0-0.249-0.025-0.491-0.075-0.722c-0.051-0.231-0.127-0.445-0.23-0.643
				s-0.235-0.369-0.392-0.517c-0.158-0.148-0.344-0.262-0.558-0.344c-0.214-0.083-0.459-0.124-0.733-0.125
				c-0.272-0.001-0.52,0.052-0.743,0.161c-0.223,0.109-0.41,0.281-0.56,0.516h-0.016V3.382h-1.142L18.883,9.295L18.883,9.295z
				 M24.684,1.715h-1.201v0.99h1.201V1.715L24.684,1.715z M23.482,7.755h1.201V3.381h-1.201V7.755L23.482,7.755z M26.889,2.07
				h-1.201v1.311H24.96v0.804h0.728v2.58c0.001,0.219,0.038,0.396,0.111,0.534c0.072,0.137,0.172,0.243,0.299,0.316
				c0.127,0.073,0.274,0.124,0.438,0.151c0.166,0.028,0.343,0.041,0.53,0.04c0.12,0,0.241-0.003,0.364-0.009
				c0.123-0.005,0.235-0.017,0.338-0.033V6.825c-0.055,0.013-0.114,0.021-0.176,0.027c-0.064,0.004-0.128,0.007-0.196,0.007
				c-0.134,0.001-0.238-0.013-0.312-0.041c-0.075-0.03-0.125-0.08-0.155-0.155c-0.028-0.073-0.042-0.178-0.041-0.312V4.185h0.88
				V3.381h-0.88L26.889,2.07L26.889,2.07z"/>
			<path fill="#FFFFFF" d="M12.108,5.163l1.375-0.261c0.14-0.03,0.225,0.245,0.073,0.279l-1.329,0.395
				c-0.027,0.302-0.281,0.538-0.59,0.538c-0.327,0-0.592-0.265-0.592-0.592c0-0.327,0.265-0.592,0.592-0.592
				C11.83,4.93,12,5.021,12.108,5.163L12.108,5.163z"/>
			<path fill="#FFFFFF" d="M5.776,2.411h0.744l0.129,0.416h0.458L6.396,0.81H5.91L5.192,2.826h0.444L5.776,2.411L5.776,2.411z
				 M6.146,1.265h0.006l0.25,0.797H5.888L6.146,1.265L6.146,1.265z"/>
			<path fill="#FFFFFF" d="M8.259,2.079h0.469C8.71,2.16,8.684,2.228,8.652,2.282C8.62,2.336,8.584,2.379,8.545,2.411
				C8.505,2.444,8.465,2.468,8.426,2.484C8.386,2.5,8.35,2.511,8.317,2.516C8.284,2.521,8.258,2.523,8.239,2.523
				c-0.058,0-0.115-0.006-0.171-0.019C8.012,2.49,7.959,2.468,7.909,2.437c-0.05-0.031-0.094-0.073-0.132-0.126
				c-0.038-0.053-0.068-0.119-0.09-0.198c-0.022-0.08-0.033-0.174-0.034-0.283c0-0.129,0.017-0.239,0.048-0.331
				c0.031-0.092,0.074-0.167,0.128-0.225c0.054-0.058,0.116-0.101,0.185-0.128c0.069-0.027,0.141-0.041,0.217-0.04
				c0.059,0,0.113,0.009,0.16,0.027c0.047,0.017,0.088,0.04,0.123,0.067c0.036,0.027,0.065,0.056,0.088,0.087
				c0.023,0.03,0.041,0.059,0.052,0.086C8.665,1.398,8.671,1.42,8.671,1.436h0.421C9.088,1.38,9.074,1.321,9.051,1.259
				C9.028,1.197,8.994,1.136,8.949,1.077C8.905,1.018,8.848,0.964,8.78,0.916C8.711,0.868,8.63,0.829,8.535,0.801
				C8.44,0.772,8.331,0.757,8.208,0.757c-0.136,0-0.257,0.019-0.364,0.057C7.738,0.852,7.646,0.905,7.567,0.973
				C7.489,1.041,7.424,1.12,7.374,1.21C7.323,1.3,7.285,1.397,7.26,1.501C7.235,1.606,7.222,1.713,7.222,1.824
				c0,0.141,0.017,0.269,0.05,0.381C7.305,2.318,7.35,2.416,7.409,2.501c0.059,0.085,0.126,0.155,0.204,0.211
				C7.691,2.767,7.775,2.81,7.866,2.837c0.091,0.028,0.185,0.042,0.283,0.042C8.24,2.879,8.32,2.868,8.387,2.849
				c0.067-0.02,0.125-0.045,0.174-0.076c0.049-0.031,0.09-0.064,0.125-0.099c0.035-0.035,0.065-0.069,0.092-0.1L8.82,2.826H9.1V1.74
				H8.258L8.259,2.079L8.259,2.079z"/>
			<polygon fill="#FFFFFF" points="9.961,0.81 9.54,0.81 9.54,2.826 9.961,2.826 			"/>
			<polygon fill="#FFFFFF" points="10.853,0.81 10.432,0.81 10.432,2.826 11.855,2.826 11.855,2.461 10.853,2.461 			"/>
			<polygon fill="#FFFFFF" points="13.706,0.81 12.224,0.81 12.224,2.826 13.754,2.826 13.754,2.469 12.637,2.469 12.637,1.947 
				13.619,1.947 13.619,1.591 12.637,1.591 12.637,1.167 13.706,1.167 			"/>
		</g>
	</g>
</g>
</svg>
